# xmcd
#
# Track frame offsets:
#	150
#	17151
#	38377
#	55498
#	71999
#	89118
#	107157
#	122782
#	137202
#	151744
#	166758
#	186342
#	198115
#	220492
#	237810
#	250840
#
# Disc length: 3583 seconds
#
# Revision: 0
# Processed by: cddbd v1.5.1PL0 Copyright (c) Steve Scherf et al.
# Submitted via: dBpowerAMP V4.0
#
DISCID=e40dfd10
DTITLE=country - harold
DYEAR=2005
DGENRE=Country
TTITLE0=harold 
TTITLE1=harold 2
TTITLE2=harold 3
TTITLE3=harold 4
TTITLE4=harold 5
TTITLE5=harold 6
TTITLE6=harold 7
TTITLE7=harold 8
TTITLE8=harold 10
TTITLE9=harold 11
TTITLE10=harold12
TTITLE11=harold 13
TTITLE12=harold 14
TTITLE13=harold 15
TTITLE14=harold 16
TTITLE15=harold 17
EXTD=harold
EXTT0=
EXTT1=
EXTT2=
EXTT3=
EXTT4=
EXTT5=
EXTT6=
EXTT7=
EXTT8=
EXTT9=
EXTT10=
EXTT11=
EXTT12=
EXTT13=
EXTT14=
EXTT15=
PLAYORDER=
